PathFileType	4	(X/Y/Z)	D:\TRACE\v60_Jaco2_6-2-23\BothDRS_Motion2_2-v60.trc
DataRate	CameraRate	NumFrames	NumMarkers	Units	OrigDataRate	OrigDataStartFrame	OrigNumFrames
100.00	100.00	      31	9	mm	100.00	1	      7500
Frame#	Time	front left toe			Front right toe			aft left toe			aft right toe			Arm			FL body			FR body			AL Body			AR Body			
		X1	Y1	Z1	X2	Y2	Z2	X3	Y3	Z3	X4	Y4	Z4	X5	Y5	Z5	X6	Y6	Z6	X7	Y7	Z7	X8	Y8	Z8	X9	Y9	Z9	

1	0.000	-277.11017	20.11803	-235.75786	133.13243	18.40425	-249.33466	-259.11511	17.57488	370.44299	149.86172	19.93568	389.87985	-68.64545	1212.60205	-267.45795	-156.37691	576.01782	-376.77667	4.22882	576.21527	-381.04135	-132.19226	579.84351	569.34375	24.13474	573.84015	565.58960	
2	0.010	-277.07974	20.14681	-235.71143	133.11781	18.38924	-249.34163	-259.16714	17.57296	370.43643	149.89999	19.96813	389.91690	-68.65398	1212.59558	-267.43845	-156.39372	576.02789	-376.78363	4.19778	576.19189	-381.08231	-132.13991	579.83337	569.35779	24.15949	573.83234	565.57349	
3	0.020	-277.12085	20.14683	-235.72864	133.05588	18.39537	-249.35289	-259.14230	17.57508	370.43488	149.85263	19.93127	389.92325	-68.62683	1212.61121	-267.43524	-156.31856	575.98792	-376.79156	4.21942	576.20160	-381.05350	-132.21948	579.82581	569.35248	24.10836	573.85089	565.59387	
4	0.030	-277.09506	20.15573	-235.73917	133.12595	18.34199	-249.33481	-259.14459	17.56645	370.43369	149.80426	19.91638	389.90829	-68.66348	1212.58496	-267.45410	-156.39993	576.01886	-376.78357	4.27024	576.18970	-381.00360	-132.27304	579.83130	569.36292	24.11989	573.84985	565.58600	
5	0.040	-277.08871	20.10661	-235.69609	133.09477	18.36757	-249.33527	-259.19485	17.56801	370.46304	149.83600	19.93058	389.91312	-68.68765	1212.59204	-267.47098	-156.35640	576.00354	-376.75027	4.22686	576.18890	-381.03815	-132.21559	579.83453	569.38586	24.11172	573.84607	565.57159	
6	0.050	-277.10968	20.09638	-235.75111	133.09668	18.40308	-249.36143	-259.11121	17.58194	370.46201	149.89883	19.95780	389.93121	-68.63940	1212.59558	-267.45468	-156.38106	576.00000	-376.77692	4.21222	576.23035	-381.05338	-132.18060	579.83759	569.36359	24.15476	573.84265	565.59595	
7	0.060	-277.10229	20.14220	-235.72791	133.12520	18.37935	-249.35033	-259.11996	17.57291	370.42068	149.87991	19.96324	389.93405	-68.62340	1212.58960	-267.44431	-156.40083	576.05621	-376.78186	4.21485	576.18280	-381.04282	-132.15869	579.84357	569.35687	24.16850	573.84900	565.57788	
8	0.070	-277.11716	20.17772	-235.72821	133.10628	18.42876	-249.34065	-259.14627	17.58714	370.43835	149.92874	19.97252	389.92587	-68.63709	1212.61194	-267.45035	-156.35896	576.01440	-376.78473	3.77482	576.13715	-380.84814	-132.22241	579.84113	569.34180	24.13821	573.84595	565.57343	
9	0.080	-277.09778	20.16883	-235.69814	133.08862	18.37666	-249.38412	-259.14114	17.57565	370.41904	149.88977	19.95814	389.94485	-68.61732	1212.59241	-267.44489	-156.37045	575.96906	-376.77802	4.22626	576.20074	-381.07272	-132.21193	579.84906	569.35266	24.14400	573.84821	565.57703	
10	0.090	-277.08884	20.11708	-235.73497	133.10452	18.38794	-249.35738	-259.17233	17.56044	370.41074	149.87617	19.96305	389.93210	-68.63033	1212.58850	-267.45123	-156.35458	575.99939	-376.76224	4.17578	576.18756	-381.04483	-132.20192	579.84320	569.37640	24.10812	573.85437	565.54926	
11	0.100	-277.13623	20.14428	-235.71907	133.07655	18.38809	-249.35829	-259.16183	17.60350	370.44189	149.83983	19.95327	389.92505	-68.61472	1212.59937	-267.44678	-156.35727	575.98810	-376.75656	4.18280	576.21844	-381.06958	-132.18451	579.83722	569.35101	24.11524	573.85358	565.55597	
12	0.110	-277.07941	20.12460	-235.71529	133.11325	18.38112	-249.35284	-259.15985	17.58542	370.44333	149.91560	19.97867	389.91104	-68.60961	1212.59839	-267.43546	-156.38274	576.01257	-376.81149	4.19213	576.19482	-381.04666	-132.20184	579.87091	569.32117	24.15517	573.84729	565.55292	
13	0.120	-277.14090	20.12830	-235.74216	133.13684	18.37672	-249.36652	-259.12955	17.57546	370.42844	149.85315	19.93467	389.92990	-68.63567	1212.60474	-267.45404	-156.39194	576.02362	-376.77496	4.22758	576.20135	-381.04944	-132.16481	579.83521	569.35382	24.15147	573.81403	565.59186	
14	0.130	-277.03690	20.07401	-235.71661	133.12770	18.36345	-249.35071	-259.09839	17.55978	370.45798	149.85939	19.92499	389.94177	-68.63457	1212.60400	-267.44049	-156.39609	576.01746	-376.80670	4.24477	576.19452	-381.06223	-132.22067	579.80231	569.35211	24.12083	573.80750	565.59235	
15	0.140	-277.06378	20.06331	-235.67775	133.10779	18.33729	-249.33517	-259.15118	17.55031	370.46097	149.82469	19.91591	389.92780	-68.66553	1212.60962	-267.44235	-156.31929	575.97577	-376.80035	4.22759	576.16333	-381.07913	-132.23108	579.81042	569.34094	24.16501	573.83905	565.58087	
16	0.150	-277.09488	20.13295	-235.70340	133.09982	18.35862	-249.32474	-259.13394	17.56798	370.41153	149.86519	19.96565	389.91061	-68.66241	1212.62012	-267.43011	-156.37062	575.97021	-376.77264	4.22968	576.18561	-381.05188	-132.18813	579.84467	569.35931	24.12527	573.83630	565.53870	
17	0.160	-277.07654	20.08082	-235.70583	133.13911	18.40191	-249.34067	-259.13593	17.53787	370.41345	149.93550	19.97350	389.92508	-68.59039	1212.59875	-267.45325	-156.36162	575.98706	-376.75903	4.22411	576.19775	-381.05511	-132.22191	579.82092	569.35437	24.15154	573.83777	565.55286	
18	0.170	-277.11166	20.14893	-235.73651	133.15376	18.42199	-249.34711	-259.15866	17.56602	370.43030	149.96056	19.98467	389.92761	-68.59020	1212.59094	-267.42654	-156.35535	575.96466	-376.77600	4.23288	576.19611	-381.06522	-132.15611	579.82538	569.34576	24.18812	573.83423	565.57758	
19	0.180	-277.09912	20.11205	-235.76665	133.05994	18.36627	-249.35883	-259.14139	17.54795	370.43399	149.86151	19.94887	389.93848	-68.61681	1212.60925	-267.44788	-156.38707	575.99078	-376.78415	4.23323	576.23334	-381.06155	-132.18684	579.81799	569.36084	24.11823	573.81891	565.55847	
20	0.190	-277.05582	20.06457	-235.72984	133.16278	18.36368	-249.32898	-259.16333	17.60096	370.45547	149.91869	19.94090	389.92273	-68.58847	1212.60876	-267.44727	-156.36485	576.02203	-376.75977	4.24128	576.18280	-381.03598	-132.19551	579.82117	569.36725	24.19882	573.80908	565.57709	
21	0.200	-277.05954	20.04213	-235.74367	133.10382	18.37187	-249.33440	-259.11218	17.52333	370.44086	149.87090	19.95505	389.93936	-68.61713	1212.60449	-267.45071	-156.39549	575.99048	-376.78958	4.18943	576.19586	-381.05951	-132.19778	579.82434	569.36426	24.17526	573.82495	565.58618	
22	0.210	-277.09564	20.09844	-235.72899	133.12196	18.39095	-249.37282	-259.14377	17.53955	370.45309	149.89508	19.94710	389.92773	-68.56249	1212.58191	-267.44766	-156.39771	576.00659	-376.78000	4.24139	576.19482	-381.04312	-132.17841	579.82416	569.34528	24.18935	573.82214	565.55823	
23	0.220	-277.10474	20.15882	-235.71510	133.13698	18.39684	-249.33104	-259.14813	17.56258	370.44705	149.96335	19.99847	389.96204	-68.61021	1212.61890	-267.44308	-156.38914	576.00195	-376.76212	4.20177	576.22351	-381.06766	-132.21246	579.84039	569.35138	24.18403	573.83154	565.56604	
24	0.230	-277.07458	20.14503	-235.71820	133.08076	18.36471	-249.38091	-259.17142	17.60163	370.44489	149.86687	19.94154	389.88412	-68.65826	1212.60107	-267.44980	-156.38533	576.00134	-376.75452	4.20238	576.20313	-381.08377	-132.18628	579.83813	569.35156	24.16894	573.84607	565.58160	
25	0.240	-277.13226	20.13695	-235.72038	133.05728	18.33885	-249.35567	-259.18240	17.60703	370.44226	149.83746	19.94772	389.92627	-68.68328	1212.61316	-267.45383	-156.38800	575.99841	-376.77679	4.21524	576.21472	-381.05380	-132.20135	579.83325	569.36047	24.09000	573.84406	565.56427	
26	0.250	-277.13571	20.14668	-235.71042	133.08032	18.33705	-249.37450	-259.18198	17.58585	370.42282	149.78598	19.91072	389.89462	-68.66004	1212.59802	-267.45792	-156.36823	575.96667	-376.77991	4.26171	576.22211	-381.05328	-132.25063	579.80255	569.35437	24.13306	573.82892	565.54376	
27	0.260	-277.11594	20.12519	-235.69560	133.09477	18.40065	-249.34265	-259.17410	17.60459	370.42957	149.78409	19.94241	389.92749	-68.63152	1212.60681	-267.43991	-156.38393	575.99316	-376.79187	4.20088	576.21259	-381.07031	-132.22867	579.83319	569.34485	24.14267	573.85016	565.57385	
28	0.270	-277.10129	20.15799	-235.72189	133.11491	18.39623	-249.36678	-259.12579	17.56759	370.42969	149.86391	19.94703	389.90622	-68.62260	1212.58960	-267.45059	-156.35365	575.99158	-376.78552	4.25991	576.21271	-381.04230	-132.16576	579.86298	569.36432	24.17730	573.82483	565.54065	
29	0.280	-277.07904	20.14125	-235.72316	133.15387	18.40912	-249.36673	-259.13345	17.55712	370.43616	149.95273	20.01008	389.93488	-68.60595	1212.61401	-267.43576	-156.33224	575.95276	-376.78448	4.17155	576.21686	-381.08435	-132.15224	579.82861	569.36023	24.18965	573.84229	565.56116	
30	0.290	-277.08380	20.07511	-235.71271	133.12485	18.37367	-249.32579	-259.11728	17.54156	370.45151	149.95636	19.97769	389.94162	-68.62357	1212.61584	-267.43954	-156.36069	575.99445	-376.76367	4.21079	576.20026	-381.04370	-132.18576	579.82642	569.34906	24.15461	573.83319	565.57739	
31	0.300	-277.02301	20.06060	-235.67166	133.09851	18.32969	-249.35463	-259.17902	17.56717	370.45065	149.75375	19.89461	389.88065	-68.65149	1212.58594	-267.47153	-156.37036	576.03168	-376.78387	4.24061	576.18353	-381.06271	-132.19305	579.80359	569.35651	24.17962	573.82660	565.57855	
